<svg xmlns="http://www.w3.org/2000/svg" xmlns:xlink="http://www.w3.org/1999/xlink" width="180" zoomAndPan="magnify" viewBox="0 0 135 37.5" height="50" preserveAspectRatio="xMidYMid meet" version="1.0"><defs><g/><clipPath id="cfa4c4f3fc"><path d="M 0.886719 0 L 134.109375 0 L 134.109375 37.007812 L 0.886719 37.007812 Z M 0.886719 0 " clip-rule="nonzero"/></clipPath><clipPath id="e17f4e6918"><path d="M 0.886719 0.0273438 L 37.953125 0.0273438 L 37.953125 37 L 0.886719 37 Z M 0.886719 0.0273438 " clip-rule="nonzero"/></clipPath><clipPath id="df934e21d5"><path d="M 127 7 L 134.109375 7 L 134.109375 21 L 127 21 Z M 127 7 " clip-rule="nonzero"/></clipPath><clipPath id="cd92a1ee53"><rect x="0" width="135" y="0" height="38"/></clipPath></defs><g clip-path="url(#cfa4c4f3fc)"><g transform="matrix(1, 0, 0, 1, 0.000000000000000111, -0.000000000000001478)"><g clip-path="url(#cd92a1ee53)"><g clip-path="url(#e17f4e6918)"><path fill="#0023e6" d="M 26.371094 36.972656 L 37.925781 25.417969 L 37.925781 0.144531 L 12.472656 0.144531 L 0.917969 11.699219 L 26.371094 11.699219 Z M 26.371094 36.972656 " fill-opacity="1" fill-rule="nonzero"/></g><path fill="#ff5b22" d="M 22.527344 31.324219 C 22.527344 31.527344 22.527344 31.730469 22.476562 31.933594 C 22.425781 32.136719 22.375 32.316406 22.296875 32.519531 C 22.21875 32.699219 22.117188 32.875 22.015625 33.054688 C 21.914062 33.230469 21.761719 33.382812 21.636719 33.539062 C 21.484375 33.691406 21.328125 33.816406 21.152344 33.917969 C 20.972656 34.019531 20.796875 34.121094 20.617188 34.199219 C 20.4375 34.273438 20.234375 34.324219 20.03125 34.378906 C 19.828125 34.429688 19.625 34.429688 19.421875 34.429688 C 19.21875 34.429688 19.015625 34.429688 18.808594 34.378906 C 18.605469 34.324219 18.429688 34.273438 18.226562 34.199219 C 18.046875 34.121094 17.867188 34.019531 17.691406 33.917969 C 17.511719 33.816406 17.359375 33.664062 17.207031 33.539062 C 17.054688 33.382812 16.925781 33.230469 16.824219 33.054688 C 16.722656 32.875 16.621094 32.699219 16.546875 32.519531 C 16.46875 32.339844 16.417969 32.136719 16.367188 31.933594 C 16.316406 31.730469 16.316406 31.527344 16.316406 31.324219 C 16.316406 31.121094 16.316406 30.914062 16.367188 30.710938 C 16.417969 30.507812 16.46875 30.304688 16.546875 30.125 C 16.621094 29.949219 16.722656 29.769531 16.824219 29.59375 C 16.925781 29.414062 17.078125 29.261719 17.207031 29.109375 C 17.359375 28.957031 17.511719 28.828125 17.691406 28.726562 C 17.867188 28.625 18.046875 28.523438 18.226562 28.445312 C 18.402344 28.371094 18.605469 28.320312 18.808594 28.269531 C 19.015625 28.21875 19.21875 28.21875 19.421875 28.21875 C 19.625 28.21875 19.828125 28.21875 20.03125 28.269531 C 20.234375 28.320312 20.414062 28.371094 20.617188 28.445312 C 20.796875 28.523438 20.972656 28.625 21.152344 28.726562 C 21.328125 28.828125 21.484375 28.980469 21.636719 29.109375 C 21.789062 29.234375 21.914062 29.414062 22.015625 29.59375 C 22.117188 29.769531 22.21875 29.949219 22.296875 30.125 C 22.375 30.304688 22.425781 30.507812 22.476562 30.710938 C 22.527344 30.914062 22.527344 31.121094 22.527344 31.324219 Z M 22.527344 31.324219 " fill-opacity="1" fill-rule="nonzero"/><g fill="#000000" fill-opacity="1"><g transform="translate(40.685308, 20.965829)"><g><path d="M 4.453125 0.15625 C 3.359375 0.15625 2.476562 -0.160156 1.8125 -0.796875 C 1.144531 -1.441406 0.8125 -2.296875 0.8125 -3.359375 L 0.8125 -10.21875 C 0.8125 -11.28125 1.144531 -12.128906 1.8125 -12.765625 C 2.476562 -13.410156 3.359375 -13.734375 4.453125 -13.734375 C 5.554688 -13.734375 6.445312 -13.410156 7.125 -12.765625 C 7.800781 -12.128906 8.140625 -11.273438 8.140625 -10.203125 L 8.140625 -9.4375 C 8.140625 -9.375 8.117188 -9.316406 8.078125 -9.265625 C 8.035156 -9.222656 7.976562 -9.203125 7.90625 -9.203125 L 6.125 -9.203125 C 6.0625 -9.203125 6.003906 -9.222656 5.953125 -9.265625 C 5.910156 -9.316406 5.890625 -9.375 5.890625 -9.4375 L 5.890625 -10.234375 C 5.890625 -10.703125 5.753906 -11.078125 5.484375 -11.359375 C 5.222656 -11.648438 4.878906 -11.796875 4.453125 -11.796875 C 4.023438 -11.796875 3.679688 -11.648438 3.421875 -11.359375 C 3.171875 -11.078125 3.046875 -10.703125 3.046875 -10.234375 L 3.046875 -3.328125 C 3.046875 -2.867188 3.171875 -2.492188 3.421875 -2.203125 C 3.679688 -1.921875 4.023438 -1.78125 4.453125 -1.78125 C 4.878906 -1.78125 5.222656 -1.921875 5.484375 -2.203125 C 5.753906 -2.492188 5.890625 -2.867188 5.890625 -3.328125 L 5.890625 -5.203125 C 5.890625 -5.265625 5.859375 -5.296875 5.796875 -5.296875 L 4.609375 -5.296875 C 4.546875 -5.296875 4.488281 -5.316406 4.4375 -5.359375 C 4.394531 -5.398438 4.375 -5.457031 4.375 -5.53125 L 4.375 -6.9375 C 4.375 -7 4.394531 -7.050781 4.4375 -7.09375 C 4.488281 -7.144531 4.546875 -7.171875 4.609375 -7.171875 L 7.90625 -7.171875 C 7.976562 -7.171875 8.035156 -7.144531 8.078125 -7.09375 C 8.117188 -7.050781 8.140625 -7 8.140625 -6.9375 L 8.140625 -3.359375 C 8.140625 -2.296875 7.800781 -1.441406 7.125 -0.796875 C 6.445312 -0.160156 5.554688 0.15625 4.453125 0.15625 Z M 4.453125 0.15625 "/></g></g></g><g fill="#000000" fill-opacity="1"><g transform="translate(48.751834, 20.965829)"><g><path d="M 6.421875 0 C 6.285156 0 6.203125 -0.0625 6.171875 -0.1875 L 4.515625 -5.765625 C 4.492188 -5.816406 4.460938 -5.84375 4.421875 -5.84375 L 3.390625 -5.84375 C 3.328125 -5.84375 3.296875 -5.804688 3.296875 -5.734375 L 3.296875 -0.234375 C 3.296875 -0.171875 3.269531 -0.113281 3.21875 -0.0625 C 3.175781 -0.0195312 3.125 0 3.0625 0 L 1.28125 0 C 1.21875 0 1.160156 -0.0195312 1.109375 -0.0625 C 1.066406 -0.113281 1.046875 -0.171875 1.046875 -0.234375 L 1.046875 -13.34375 C 1.046875 -13.40625 1.066406 -13.457031 1.109375 -13.5 C 1.160156 -13.550781 1.21875 -13.578125 1.28125 -13.578125 L 4.921875 -13.578125 C 5.609375 -13.578125 6.210938 -13.410156 6.734375 -13.078125 C 7.265625 -12.742188 7.671875 -12.273438 7.953125 -11.671875 C 8.242188 -11.078125 8.390625 -10.394531 8.390625 -9.625 C 8.390625 -8.820312 8.234375 -8.128906 7.921875 -7.546875 C 7.617188 -6.960938 7.1875 -6.519531 6.625 -6.21875 C 6.570312 -6.207031 6.554688 -6.171875 6.578125 -6.109375 L 8.46875 -0.265625 C 8.488281 -0.242188 8.5 -0.210938 8.5 -0.171875 C 8.5 -0.0546875 8.425781 0 8.28125 0 Z M 3.390625 -11.640625 C 3.328125 -11.640625 3.296875 -11.601562 3.296875 -11.53125 L 3.296875 -7.671875 C 3.296875 -7.609375 3.328125 -7.578125 3.390625 -7.578125 L 4.578125 -7.578125 C 5.046875 -7.578125 5.421875 -7.757812 5.703125 -8.125 C 5.992188 -8.488281 6.140625 -8.976562 6.140625 -9.59375 C 6.140625 -10.21875 5.992188 -10.710938 5.703125 -11.078125 C 5.421875 -11.453125 5.046875 -11.640625 4.578125 -11.640625 Z M 3.390625 -11.640625 "/></g></g></g><g fill="#000000" fill-opacity="1"><g transform="translate(56.798973, 20.965829)"><g><path d="M 4.515625 0.15625 C 3.398438 0.15625 2.503906 -0.175781 1.828125 -0.84375 C 1.148438 -1.519531 0.8125 -2.414062 0.8125 -3.53125 L 0.8125 -10.046875 C 0.8125 -11.160156 1.148438 -12.050781 1.828125 -12.71875 C 2.503906 -13.394531 3.398438 -13.734375 4.515625 -13.734375 C 5.628906 -13.734375 6.523438 -13.394531 7.203125 -12.71875 C 7.890625 -12.050781 8.234375 -11.160156 8.234375 -10.046875 L 8.234375 -3.53125 C 8.234375 -2.414062 7.890625 -1.519531 7.203125 -0.84375 C 6.523438 -0.175781 5.628906 0.15625 4.515625 0.15625 Z M 4.515625 -1.78125 C 4.953125 -1.78125 5.304688 -1.929688 5.578125 -2.234375 C 5.847656 -2.535156 5.984375 -2.9375 5.984375 -3.4375 L 5.984375 -10.140625 C 5.984375 -10.628906 5.847656 -11.023438 5.578125 -11.328125 C 5.304688 -11.640625 4.953125 -11.796875 4.515625 -11.796875 C 4.078125 -11.796875 3.722656 -11.640625 3.453125 -11.328125 C 3.191406 -11.023438 3.0625 -10.628906 3.0625 -10.140625 L 3.0625 -3.4375 C 3.0625 -2.9375 3.191406 -2.535156 3.453125 -2.234375 C 3.722656 -1.929688 4.078125 -1.78125 4.515625 -1.78125 Z M 4.515625 -1.78125 "/></g></g></g><g fill="#000000" fill-opacity="1"><g transform="translate(64.923669, 20.965829)"><g><path d="M 3.296875 0 C 3.140625 0 3.054688 -0.0703125 3.046875 -0.21875 L 0.46875 -13.328125 L 0.453125 -13.40625 C 0.453125 -13.519531 0.519531 -13.578125 0.65625 -13.578125 L 2.515625 -13.578125 C 2.671875 -13.578125 2.753906 -13.503906 2.765625 -13.359375 L 4.125 -5.28125 C 4.144531 -5.238281 4.164062 -5.21875 4.1875 -5.21875 C 4.21875 -5.21875 4.238281 -5.238281 4.25 -5.28125 L 5.46875 -13.359375 C 5.476562 -13.503906 5.5625 -13.578125 5.71875 -13.578125 L 7.265625 -13.578125 C 7.421875 -13.578125 7.507812 -13.503906 7.53125 -13.359375 L 8.84375 -5.28125 C 8.851562 -5.238281 8.867188 -5.21875 8.890625 -5.21875 C 8.921875 -5.21875 8.941406 -5.238281 8.953125 -5.28125 L 10.1875 -13.359375 C 10.195312 -13.503906 10.28125 -13.578125 10.4375 -13.578125 L 12.234375 -13.578125 C 12.398438 -13.578125 12.472656 -13.492188 12.453125 -13.328125 L 9.984375 -0.21875 C 9.972656 -0.0703125 9.890625 0 9.734375 0 L 8.078125 0 C 7.929688 0 7.847656 -0.0703125 7.828125 -0.21875 L 6.53125 -8.453125 C 6.519531 -8.503906 6.5 -8.53125 6.46875 -8.53125 C 6.445312 -8.53125 6.429688 -8.503906 6.421875 -8.453125 L 5.21875 -0.21875 C 5.207031 -0.0703125 5.125 0 4.96875 0 Z M 3.296875 0 "/></g></g></g><g fill="#000000" fill-opacity="1"><g transform="translate(76.926545, 20.965829)"><g><path d="M 8.015625 -13.578125 C 8.078125 -13.578125 8.128906 -13.550781 8.171875 -13.5 C 8.210938 -13.457031 8.234375 -13.40625 8.234375 -13.34375 L 8.234375 -11.859375 C 8.234375 -11.796875 8.210938 -11.742188 8.171875 -11.703125 C 8.128906 -11.660156 8.078125 -11.640625 8.015625 -11.640625 L 5.546875 -11.640625 C 5.484375 -11.640625 5.453125 -11.601562 5.453125 -11.53125 L 5.453125 -0.234375 C 5.453125 -0.171875 5.425781 -0.113281 5.375 -0.0625 C 5.332031 -0.0195312 5.28125 0 5.21875 0 L 3.4375 0 C 3.363281 0 3.304688 -0.0195312 3.265625 -0.0625 C 3.222656 -0.113281 3.203125 -0.171875 3.203125 -0.234375 L 3.203125 -11.53125 C 3.203125 -11.601562 3.171875 -11.640625 3.109375 -11.640625 L 0.78125 -11.640625 C 0.707031 -11.640625 0.648438 -11.660156 0.609375 -11.703125 C 0.566406 -11.742188 0.546875 -11.796875 0.546875 -11.859375 L 0.546875 -13.34375 C 0.546875 -13.40625 0.566406 -13.457031 0.609375 -13.5 C 0.648438 -13.550781 0.707031 -13.578125 0.78125 -13.578125 Z M 8.015625 -13.578125 "/></g></g></g><g fill="#000000" fill-opacity="1"><g transform="translate(84.799171, 20.965829)"><g><path d="M 5.953125 -13.34375 C 5.953125 -13.40625 5.972656 -13.457031 6.015625 -13.5 C 6.066406 -13.550781 6.125 -13.578125 6.1875 -13.578125 L 7.96875 -13.578125 C 8.03125 -13.578125 8.082031 -13.550781 8.125 -13.5 C 8.175781 -13.457031 8.203125 -13.40625 8.203125 -13.34375 L 8.203125 -0.234375 C 8.203125 -0.171875 8.175781 -0.113281 8.125 -0.0625 C 8.082031 -0.0195312 8.03125 0 7.96875 0 L 6.1875 0 C 6.125 0 6.066406 -0.0195312 6.015625 -0.0625 C 5.972656 -0.113281 5.953125 -0.171875 5.953125 -0.234375 L 5.953125 -5.71875 C 5.953125 -5.78125 5.921875 -5.8125 5.859375 -5.8125 L 3.390625 -5.8125 C 3.328125 -5.8125 3.296875 -5.78125 3.296875 -5.71875 L 3.296875 -0.234375 C 3.296875 -0.171875 3.269531 -0.113281 3.21875 -0.0625 C 3.175781 -0.0195312 3.125 0 3.0625 0 L 1.28125 0 C 1.21875 0 1.160156 -0.0195312 1.109375 -0.0625 C 1.066406 -0.113281 1.046875 -0.171875 1.046875 -0.234375 L 1.046875 -13.34375 C 1.046875 -13.40625 1.066406 -13.457031 1.109375 -13.5 C 1.160156 -13.550781 1.21875 -13.578125 1.28125 -13.578125 L 3.0625 -13.578125 C 3.125 -13.578125 3.175781 -13.550781 3.21875 -13.5 C 3.269531 -13.457031 3.296875 -13.40625 3.296875 -13.34375 L 3.296875 -7.875 C 3.296875 -7.8125 3.328125 -7.78125 3.390625 -7.78125 L 5.859375 -7.78125 C 5.921875 -7.78125 5.953125 -7.8125 5.953125 -7.875 Z M 5.953125 -13.34375 "/></g></g></g><g fill="#000000" fill-opacity="1"><g transform="translate(93.156561, 20.965829)"><g/></g></g><g fill="#000000" fill-opacity="1"><g transform="translate(96.142688, 20.965829)"><g><path d="M 4.25 0.15625 C 3.175781 0.15625 2.304688 -0.164062 1.640625 -0.8125 C 0.984375 -1.457031 0.65625 -2.304688 0.65625 -3.359375 L 0.65625 -3.859375 C 0.65625 -3.921875 0.675781 -3.972656 0.71875 -4.015625 C 0.769531 -4.066406 0.828125 -4.09375 0.890625 -4.09375 L 2.65625 -4.09375 C 2.71875 -4.09375 2.769531 -4.066406 2.8125 -4.015625 C 2.863281 -3.972656 2.890625 -3.921875 2.890625 -3.859375 L 2.890625 -3.46875 C 2.890625 -2.96875 3.015625 -2.5625 3.265625 -2.25 C 3.515625 -1.9375 3.84375 -1.78125 4.25 -1.78125 C 4.644531 -1.78125 4.972656 -1.925781 5.234375 -2.21875 C 5.492188 -2.507812 5.625 -2.894531 5.625 -3.375 C 5.625 -3.707031 5.550781 -3.992188 5.40625 -4.234375 C 5.269531 -4.484375 5.070312 -4.71875 4.8125 -4.9375 C 4.550781 -5.164062 4.132812 -5.484375 3.5625 -5.890625 C 2.914062 -6.359375 2.394531 -6.769531 2 -7.125 C 1.613281 -7.488281 1.285156 -7.925781 1.015625 -8.4375 C 0.753906 -8.945312 0.625 -9.539062 0.625 -10.21875 C 0.625 -11.289062 0.945312 -12.144531 1.59375 -12.78125 C 2.238281 -13.414062 3.09375 -13.734375 4.15625 -13.734375 C 5.226562 -13.734375 6.09375 -13.398438 6.75 -12.734375 C 7.40625 -12.066406 7.734375 -11.179688 7.734375 -10.078125 L 7.734375 -9.625 C 7.734375 -9.550781 7.707031 -9.492188 7.65625 -9.453125 C 7.613281 -9.410156 7.5625 -9.390625 7.5 -9.390625 L 5.765625 -9.390625 C 5.691406 -9.390625 5.632812 -9.410156 5.59375 -9.453125 C 5.550781 -9.492188 5.53125 -9.550781 5.53125 -9.625 L 5.53125 -10.125 C 5.53125 -10.625 5.398438 -11.023438 5.140625 -11.328125 C 4.890625 -11.640625 4.5625 -11.796875 4.15625 -11.796875 C 3.757812 -11.796875 3.4375 -11.65625 3.1875 -11.375 C 2.945312 -11.09375 2.828125 -10.707031 2.828125 -10.21875 C 2.828125 -9.75 2.957031 -9.351562 3.21875 -9.03125 C 3.488281 -8.707031 4.015625 -8.265625 4.796875 -7.703125 C 5.578125 -7.117188 6.164062 -6.640625 6.5625 -6.265625 C 6.96875 -5.898438 7.28125 -5.5 7.5 -5.0625 C 7.71875 -4.625 7.828125 -4.097656 7.828125 -3.484375 C 7.828125 -2.390625 7.5 -1.507812 6.84375 -0.84375 C 6.1875 -0.175781 5.320312 0.15625 4.25 0.15625 Z M 4.25 0.15625 "/></g></g></g><g fill="#000000" fill-opacity="1"><g transform="translate(103.588711, 20.965829)"><g><path d="M 4.90625 -13.59375 C 5.59375 -13.59375 6.195312 -13.421875 6.71875 -13.078125 C 7.238281 -12.742188 7.644531 -12.273438 7.9375 -11.671875 C 8.226562 -11.066406 8.375 -10.375 8.375 -9.59375 C 8.375 -8.4375 8.066406 -7.5 7.453125 -6.78125 C 6.835938 -6.070312 6.023438 -5.71875 5.015625 -5.71875 L 3.375 -5.71875 C 3.3125 -5.71875 3.28125 -5.6875 3.28125 -5.625 L 3.28125 -0.234375 C 3.28125 -0.171875 3.253906 -0.113281 3.203125 -0.0625 C 3.160156 -0.0195312 3.109375 0 3.046875 0 L 1.265625 0 C 1.191406 0 1.132812 -0.0195312 1.09375 -0.0625 C 1.050781 -0.113281 1.03125 -0.171875 1.03125 -0.234375 L 1.03125 -13.359375 C 1.03125 -13.421875 1.050781 -13.472656 1.09375 -13.515625 C 1.132812 -13.566406 1.191406 -13.59375 1.265625 -13.59375 Z M 4.53125 -7.484375 C 5.007812 -7.484375 5.394531 -7.664062 5.6875 -8.03125 C 5.976562 -8.40625 6.125 -8.910156 6.125 -9.546875 C 6.125 -10.191406 5.976562 -10.703125 5.6875 -11.078125 C 5.394531 -11.460938 5.007812 -11.65625 4.53125 -11.65625 L 3.375 -11.65625 C 3.3125 -11.65625 3.28125 -11.625 3.28125 -11.5625 L 3.28125 -7.578125 C 3.28125 -7.515625 3.3125 -7.484375 3.375 -7.484375 Z M 4.53125 -7.484375 "/></g></g></g><g fill="#000000" fill-opacity="1"><g transform="translate(110.957177, 20.965829)"><g><path d="M 6.546875 0 C 6.398438 0 6.316406 -0.0703125 6.296875 -0.21875 L 5.9375 -2.25 C 5.9375 -2.3125 5.894531 -2.34375 5.8125 -2.34375 L 2.984375 -2.34375 C 2.910156 -2.34375 2.875 -2.3125 2.875 -2.25 L 2.5 -0.21875 C 2.488281 -0.0703125 2.40625 0 2.25 0 L 0.484375 0 C 0.304688 0 0.234375 -0.0820312 0.265625 -0.25 L 3.140625 -13.359375 C 3.171875 -13.503906 3.253906 -13.578125 3.390625 -13.578125 L 5.453125 -13.578125 C 5.585938 -13.578125 5.671875 -13.503906 5.703125 -13.359375 L 8.578125 -0.25 L 8.578125 -0.171875 C 8.578125 -0.0546875 8.503906 0 8.359375 0 Z M 3.21875 -4.203125 C 3.207031 -4.140625 3.238281 -4.109375 3.3125 -4.109375 L 5.46875 -4.109375 C 5.539062 -4.109375 5.570312 -4.140625 5.5625 -4.203125 L 4.4375 -10.328125 C 4.425781 -10.367188 4.40625 -10.390625 4.375 -10.390625 C 4.351562 -10.390625 4.335938 -10.367188 4.328125 -10.328125 Z M 3.21875 -4.203125 "/></g></g></g><g fill="#000000" fill-opacity="1"><g transform="translate(118.597111, 20.965829)"><g><path d="M 4.453125 0.15625 C 3.359375 0.15625 2.476562 -0.175781 1.8125 -0.84375 C 1.144531 -1.507812 0.8125 -2.390625 0.8125 -3.484375 L 0.8125 -10.109375 C 0.8125 -11.210938 1.144531 -12.09375 1.8125 -12.75 C 2.476562 -13.40625 3.359375 -13.734375 4.453125 -13.734375 C 5.566406 -13.734375 6.457031 -13.40625 7.125 -12.75 C 7.800781 -12.09375 8.140625 -11.210938 8.140625 -10.109375 L 8.140625 -9.875 C 8.140625 -9.800781 8.117188 -9.738281 8.078125 -9.6875 C 8.035156 -9.644531 7.976562 -9.625 7.90625 -9.625 L 6.109375 -9.546875 C 5.953125 -9.546875 5.875 -9.617188 5.875 -9.765625 L 5.875 -10.25 C 5.875 -10.707031 5.742188 -11.078125 5.484375 -11.359375 C 5.222656 -11.648438 4.878906 -11.796875 4.453125 -11.796875 C 4.046875 -11.796875 3.710938 -11.648438 3.453125 -11.359375 C 3.191406 -11.078125 3.0625 -10.707031 3.0625 -10.25 L 3.0625 -3.3125 C 3.0625 -2.863281 3.191406 -2.492188 3.453125 -2.203125 C 3.710938 -1.921875 4.046875 -1.78125 4.453125 -1.78125 C 4.878906 -1.78125 5.222656 -1.921875 5.484375 -2.203125 C 5.742188 -2.492188 5.875 -2.863281 5.875 -3.3125 L 5.875 -3.796875 C 5.875 -3.859375 5.894531 -3.910156 5.9375 -3.953125 C 5.988281 -4.003906 6.046875 -4.03125 6.109375 -4.03125 L 7.90625 -3.953125 C 7.976562 -3.953125 8.035156 -3.925781 8.078125 -3.875 C 8.117188 -3.832031 8.140625 -3.78125 8.140625 -3.71875 L 8.140625 -3.484375 C 8.140625 -2.390625 7.800781 -1.507812 7.125 -0.84375 C 6.457031 -0.175781 5.566406 0.15625 4.453125 0.15625 Z M 4.453125 0.15625 "/></g></g></g><g clip-path="url(#df934e21d5)"><g fill="#000000" fill-opacity="1"><g transform="translate(126.566692, 20.965829)"><g><path d="M 7.8125 -11.859375 C 7.8125 -11.796875 7.785156 -11.742188 7.734375 -11.703125 C 7.691406 -11.660156 7.640625 -11.640625 7.578125 -11.640625 L 3.390625 -11.640625 C 3.328125 -11.640625 3.296875 -11.601562 3.296875 -11.53125 L 3.296875 -7.875 C 3.296875 -7.8125 3.328125 -7.78125 3.390625 -7.78125 L 5.875 -7.78125 C 5.9375 -7.78125 5.988281 -7.753906 6.03125 -7.703125 C 6.082031 -7.660156 6.109375 -7.609375 6.109375 -7.546875 L 6.109375 -6.046875 C 6.109375 -5.984375 6.082031 -5.925781 6.03125 -5.875 C 5.988281 -5.832031 5.9375 -5.8125 5.875 -5.8125 L 3.390625 -5.8125 C 3.328125 -5.8125 3.296875 -5.78125 3.296875 -5.71875 L 3.296875 -2.03125 C 3.296875 -1.96875 3.328125 -1.9375 3.390625 -1.9375 L 7.578125 -1.9375 C 7.640625 -1.9375 7.691406 -1.910156 7.734375 -1.859375 C 7.785156 -1.816406 7.8125 -1.765625 7.8125 -1.703125 L 7.8125 -0.234375 C 7.8125 -0.171875 7.785156 -0.113281 7.734375 -0.0625 C 7.691406 -0.0195312 7.640625 0 7.578125 0 L 1.28125 0 C 1.21875 0 1.160156 -0.0195312 1.109375 -0.0625 C 1.066406 -0.113281 1.046875 -0.171875 1.046875 -0.234375 L 1.046875 -13.34375 C 1.046875 -13.40625 1.066406 -13.457031 1.109375 -13.5 C 1.160156 -13.550781 1.21875 -13.578125 1.28125 -13.578125 L 7.578125 -13.578125 C 7.640625 -13.578125 7.691406 -13.550781 7.734375 -13.5 C 7.785156 -13.457031 7.8125 -13.40625 7.8125 -13.34375 Z M 7.8125 -11.859375 "/></g></g></g></g><g fill="#000000" fill-opacity="1"><g transform="translate(92.313982, 31.708565)"><g><path d="M 0.921875 0 C 0.847656 0 0.8125 -0.0351562 0.8125 -0.109375 L 0.8125 -7.8125 C 0.8125 -7.894531 0.847656 -7.9375 0.921875 -7.9375 L 1.5 -7.9375 C 1.582031 -7.9375 1.625 -7.894531 1.625 -7.8125 L 1.625 -0.75 C 1.625 -0.71875 1.640625 -0.703125 1.671875 -0.703125 L 4.265625 -0.703125 C 4.335938 -0.703125 4.375 -0.664062 4.375 -0.59375 L 4.375 -0.109375 C 4.375 -0.0351562 4.335938 0 4.265625 0 Z M 0.921875 0 "/></g></g></g><g fill="#000000" fill-opacity="1"><g transform="translate(101.434421, 31.708565)"><g><path d="M 3.8125 0 C 3.738281 0 3.695312 -0.0351562 3.6875 -0.109375 L 3.40625 -1.5 C 3.40625 -1.519531 3.394531 -1.53125 3.375 -1.53125 C 3.363281 -1.539062 3.351562 -1.546875 3.34375 -1.546875 L 1.296875 -1.546875 C 1.273438 -1.546875 1.257812 -1.539062 1.25 -1.53125 C 1.238281 -1.53125 1.234375 -1.519531 1.234375 -1.5 L 0.953125 -0.109375 C 0.941406 -0.0351562 0.898438 0 0.828125 0 L 0.25 0 C 0.207031 0 0.175781 -0.0078125 0.15625 -0.03125 C 0.144531 -0.0507812 0.140625 -0.0820312 0.140625 -0.125 L 1.84375 -7.828125 C 1.863281 -7.898438 1.90625 -7.9375 1.96875 -7.9375 L 2.65625 -7.9375 C 2.726562 -7.9375 2.769531 -7.898438 2.78125 -7.828125 L 4.5 -0.125 L 4.5 -0.109375 C 4.5 -0.0351562 4.460938 0 4.390625 0 Z M 1.375 -2.25 C 1.375 -2.21875 1.390625 -2.203125 1.421875 -2.203125 L 3.203125 -2.203125 C 3.222656 -2.203125 3.234375 -2.21875 3.234375 -2.25 L 2.328125 -6.703125 C 2.328125 -6.722656 2.320312 -6.734375 2.3125 -6.734375 C 2.300781 -6.734375 2.289062 -6.722656 2.28125 -6.703125 Z M 1.375 -2.25 "/></g></g></g><g fill="#000000" fill-opacity="1"><g transform="translate(110.226122, 31.708565)"><g><path d="M 3.984375 -7.8125 C 3.984375 -7.894531 4.019531 -7.9375 4.09375 -7.9375 L 4.671875 -7.9375 C 4.742188 -7.9375 4.78125 -7.894531 4.78125 -7.8125 L 4.78125 -0.109375 C 4.78125 -0.0351562 4.742188 0 4.671875 0 L 4 0 C 3.9375 0 3.894531 -0.03125 3.875 -0.09375 L 1.671875 -5.953125 C 1.660156 -5.972656 1.644531 -5.976562 1.625 -5.96875 C 1.613281 -5.96875 1.609375 -5.957031 1.609375 -5.9375 L 1.625 -0.109375 C 1.625 -0.0351562 1.582031 0 1.5 0 L 0.921875 0 C 0.847656 0 0.8125 -0.0351562 0.8125 -0.109375 L 0.8125 -7.8125 C 0.8125 -7.894531 0.847656 -7.9375 0.921875 -7.9375 L 1.59375 -7.9375 C 1.644531 -7.9375 1.679688 -7.90625 1.703125 -7.84375 L 3.9375 -1.96875 C 3.9375 -1.945312 3.941406 -1.9375 3.953125 -1.9375 C 3.972656 -1.945312 3.984375 -1.960938 3.984375 -1.984375 Z M 3.984375 -7.8125 "/></g></g></g><g fill="#000000" fill-opacity="1"><g transform="translate(119.957846, 31.708565)"><g><path d="M 0.921875 0 C 0.847656 0 0.8125 -0.0351562 0.8125 -0.109375 L 0.8125 -7.8125 C 0.8125 -7.894531 0.847656 -7.9375 0.921875 -7.9375 L 1.5 -7.9375 C 1.582031 -7.9375 1.625 -7.894531 1.625 -7.8125 L 1.625 -4.140625 C 1.625 -4.117188 1.628906 -4.101562 1.640625 -4.09375 C 1.660156 -4.09375 1.671875 -4.101562 1.671875 -4.125 L 3.859375 -7.84375 C 3.898438 -7.90625 3.945312 -7.9375 4 -7.9375 L 4.640625 -7.9375 C 4.679688 -7.9375 4.707031 -7.921875 4.71875 -7.890625 C 4.738281 -7.859375 4.738281 -7.828125 4.71875 -7.796875 L 2.953125 -4.71875 C 2.929688 -4.6875 2.925781 -4.664062 2.9375 -4.65625 L 4.875 -0.140625 L 4.890625 -0.09375 C 4.890625 -0.03125 4.859375 0 4.796875 0 L 4.140625 0 C 4.085938 0 4.046875 -0.03125 4.015625 -0.09375 L 2.390625 -3.9375 C 2.378906 -3.96875 2.359375 -3.96875 2.328125 -3.9375 L 1.625 -2.859375 C 1.625 -2.847656 1.625 -2.828125 1.625 -2.796875 L 1.625 -0.109375 C 1.625 -0.0351562 1.582031 0 1.5 0 Z M 0.921875 0 "/></g></g></g><g fill="#000000" fill-opacity="1"><g transform="translate(129.463202, 31.708565)"><g><path d="M 3.8125 0 C 3.738281 0 3.695312 -0.0351562 3.6875 -0.109375 L 3.40625 -1.5 C 3.40625 -1.519531 3.394531 -1.53125 3.375 -1.53125 C 3.363281 -1.539062 3.351562 -1.546875 3.34375 -1.546875 L 1.296875 -1.546875 C 1.273438 -1.546875 1.257812 -1.539062 1.25 -1.53125 C 1.238281 -1.53125 1.234375 -1.519531 1.234375 -1.5 L 0.953125 -0.109375 C 0.941406 -0.0351562 0.898438 0 0.828125 0 L 0.25 0 C 0.207031 0 0.175781 -0.0078125 0.15625 -0.03125 C 0.144531 -0.0507812 0.140625 -0.0820312 0.140625 -0.125 L 1.84375 -7.828125 C 1.863281 -7.898438 1.90625 -7.9375 1.96875 -7.9375 L 2.65625 -7.9375 C 2.726562 -7.9375 2.769531 -7.898438 2.78125 -7.828125 L 4.5 -0.125 L 4.5 -0.109375 C 4.5 -0.0351562 4.460938 0 4.390625 0 Z M 1.375 -2.25 C 1.375 -2.21875 1.390625 -2.203125 1.421875 -2.203125 L 3.203125 -2.203125 C 3.222656 -2.203125 3.234375 -2.21875 3.234375 -2.25 L 2.328125 -6.703125 C 2.328125 -6.722656 2.320312 -6.734375 2.3125 -6.734375 C 2.300781 -6.734375 2.289062 -6.722656 2.28125 -6.703125 Z M 1.375 -2.25 "/></g></g></g></g></g></g></svg>